# xmcd
#
# Track frame offsets:
# 150
# 15673
# 30591
# 44055
# 61234
# 75942
# 92535
# 104886
# 124974
# 136093
# 147805
# 160909
# 180846
# 194271
# 207934
# 224059
# 243873
# 258589
# 278762
# 293523
#
# Disc length: 4070 seconds
#
#
# Revision: 0
# Processed by: cddbd v1.5.2PL0 Copyright (c) Steve Scherf et al.
# Submitted via: Nero 7, 2, 3, 3 
#
DISCID=1d0fe414
DTITLE=Several - Line Dancing Selections - POP
DYEAR=2008
DGENRE=Country
TTITLE0=Line Dancing Selections - POP
TTITLE1=Line Dancing Selections - POP
TTITLE2=Line Dancing Selections - POP
TTITLE3=Line Dancing Selections - POP
TTITLE4=Line Dancing Selections - POP
TTITLE5=Line Dancing Selections - POP
TTITLE6=Line Dancing Selections - POP
TTITLE7=Line Dancing Selections - POP
TTITLE8=Line Dancing Selections - POP
TTITLE9=Line Dancing Selections - POP
TTITLE10=Line Dancing Selections - POP
TTITLE11=Line Dancing Selections - POP
TTITLE12=Line Dancing Selections - POP
TTITLE13=Line Dancing Selections - POP
TTITLE14=Line Dancing Selections - POP
TTITLE15=Line Dancing Selections - POP
TTITLE16=Line Dancing Selections - POP
TTITLE17=Line Dancing Selections - POP
TTITLE18=Line Dancing Selections - POP
TTITLE19=Line Dancing Selections - POP
EXTD=
EXTT0=
EXTT1=
EXTT2=
EXTT3=
EXTT4=
EXTT5=
EXTT6=
EXTT7=
EXTT8=
EXTT9=
EXTT10=
EXTT11=
EXTT12=
EXTT13=
EXTT14=
EXTT15=
EXTT16=
EXTT17=
EXTT18=
EXTT19=
PLAYORDER=
